<svg xmlns="http://www.w3.org/2000/svg" xmlns:xlink="http://www.w3.org/1999/xlink" version="1.1" x="0px" y="0px" viewBox="0 0 100 100" enable-background="new 0 0 100 100" xml:space="preserve"><g><g><path d="M82.715,22.519H74.67c-0.672,0-1.304-0.33-1.689-0.881l-5.442-7.796c-1.132-1.623-2.989-2.592-4.969-2.592H37.36    c-1.913,0-3.734,0.918-4.872,2.456l-5.9,7.978c-0.388,0.523-1.006,0.835-1.656,0.835h-7.646c-6.831,0-12.388,5.557-12.388,12.388    v41.456c0,6.831,5.557,12.388,12.388,12.388h65.43c6.831,0,12.388-5.557,12.388-12.388V34.907    C95.103,28.076,89.546,22.519,82.715,22.519z M50,78.643c-13.411,0-24.321-10.911-24.321-24.321C25.679,40.911,36.589,30,50,30    s24.321,10.911,24.321,24.322C74.321,67.732,63.411,78.643,50,78.643z"></path><path d="M50,34c-11.205,0-20.321,9.116-20.321,20.322c0,11.205,9.116,20.321,20.321,20.321s20.321-9.116,20.321-20.321    C70.321,43.116,61.205,34,50,34z"></path></g></g></svg>